<svg viewBox="0 0 72 72" xmlns="http://www.w3.org/2000/svg"><g fill="none" fill-rule="evenodd"><path d="M0 0h72v72H0z"/><g fill="#0A60F5" fill-rule="nonzero"><path d="M22.021 6.75H56.73C65.163 6.75 72 13.587 72 22.021V56.73C72 65.163 65.163 72 56.729 72H22.02C13.587 72 6.75 65.163 6.75 56.729V22.02c0-8.434 6.837-15.271 15.271-15.271z" opacity=".5"/><path d="M15.271 0H49.98C58.413 0 65.25 6.837 65.25 15.271V49.98c0 8.434-6.837 15.271-15.271 15.271H15.27C6.837 65.25 0 58.413 0 49.979V15.27C0 6.837 6.837 0 15.271 0z"/></g><g fill-rule="nonzero" fill="#FFF"><path d="M36.687 32.562l4.603-4.603-4-3.999-4.602 4.603 3.999 4zm1.98-10.358l4.38 4.379c.73.692.73 1.909 0 2.639l-21.84 21.84c-.73.73-1.947.73-2.64 0l-4.379-4.38c-.73-.692-.73-1.908 0-2.638l21.84-21.84c.73-.73 1.947-.73 2.64 0z"/><path d="M25.875 19.058l-2.466 1.38a.703.703 0 0 1-.957-.957l1.189-2.122a.703.703 0 0 0 0-.687l-1.189-2.122a.703.703 0 0 1 .957-.957l2.122 1.188c.214.12.474.12.688 0l2.122-1.188a.703.703 0 0 1 .957.957l-1.189 2.122a.703.703 0 0 0 0 .687l1.189 2.122a.703.703 0 0 1-.957.957zM51.744 36.958l-1.222 2.138a.703.703 0 0 0 0 .698l1.222 2.138a.703.703 0 0 1-.949.966l-2.222-1.22a.703.703 0 0 0-.677 0l-2.223 1.22a.703.703 0 0 1-.948-.966l1.221-2.138a.703.703 0 0 0 0-.698l-1.221-2.138a.703.703 0 0 1 .948-.965l2.223 1.22c.21.115.466.115.677 0l2.222-1.22a.703.703 0 0 1 .95.965z" opacity=".25"/><path d="M50.642 17.644l1.01 1.768a.755.755 0 0 1-1.02 1.037l-1.856-1.02a1.125 1.125 0 0 0-1.083 0l-1.857 1.02a.755.755 0 0 1-1.02-1.037l1.01-1.768c.198-.346.198-.77 0-1.116l-1.01-1.768a.755.755 0 0 1 1.02-1.037l1.857 1.02c.337.184.746.184 1.083 0l1.857-1.02a.755.755 0 0 1 1.019 1.037l-1.01 1.768c-.198.346-.198.77 0 1.116z"/></g></g></svg>
